# xmcd
#
# Track frame offsets: 
#        150
#        11809
#        24886
#        37532
#        48954
#        62860
#        76062
#        89816
#        101936
#        117882
#        130007
#        142634
#        153784
#        166433
#        178844
#
# Disc length: 2534 seconds
#
# Revision: 0
# Processed by: cddbd v1.5.1PL0 Copyright (c) Steve Scherf et al.
# Submitted via: ExactAudioCopy v0.95a5
#
DISCID=b209e40f
DTITLE=Ray Charles - This IS Gold Disc 01
DYEAR=2004
DGENRE=Blues
TTITLE0=See See Rider
TTITLE1=Baby Won't You Please
TTITLE2=Can Anyone Ask For More
TTITLE3=What Have I Done
TTITLE4=Kiss Me Baby
TTITLE5=Alone In The City
TTITLE6=Misery In My Heart
TTITLE7=I Love You, I Love You
TTITLE8=Let Me Hear You Call My Name
TTITLE9=Honey Honey
TTITLE10=Why Did You Go
TTITLE11=Confession Blues
TTITLE12=The Snow Is Falling
TTITLE13=Rocking Chair Blues
TTITLE14=She's On The Ball
EXTD=
EXTT0=
EXTT1=
EXTT2=
EXTT3=
EXTT4=
EXTT5=
EXTT6=
EXTT7=
EXTT8=
EXTT9=
EXTT10=
EXTT11=
EXTT12=
EXTT13=
EXTT14=
PLAYORDER=
